<?xml version="1.0" encoding="UTF-8"?>
<svg id="Layer_1" data-name="Layer 1" xmlns="http://www.w3.org/2000/svg" viewBox="0 0 697.77 863.13">
  <defs>
    <style>
      .cls-1 {
        fill: #f45b69;
        stroke-width: 0px;
      }
    </style>
  </defs>
  <path class="cls-1" d="M697.47,408.98c-.09-47.06-29.76-88.04-72.49-101.63-16.6-5.3-33.82-6.09-51.12-5.3-7.68.35-12.01.71-11.12-10.95,2.12-28.52,2.47-57.39,1.23-86.09-4.06-94.48-70.11-174.13-163.18-198.41-88.3-23.04-182.87,15.72-233.64,93.86-40.62,62.34-35.23,130.94-31.97,201.58-11.92,0-22.69-.26-33.38,0C45.55,303.54.7,348.04.43,404.2c-.53,117.88-.62,235.75,0,353.63.35,57.31,44.94,104.2,101.9,104.54,165.29,1.06,330.68.97,495.97,0,55.01-.35,98.9-46.71,99.16-101.89.45-117.15.36-234.33.01-351.5h0ZM402.91,585.76c-8.65,6.53-11.3,12.72-11.04,22.87.62,25.78.44,51.66.18,77.44-.44,29.76-17.31,47.68-43.97,47.24-25.7-.35-41.77-18.01-42.21-46.8-.26-15.1-.44-30.11,0-45.21.8-26.23-.09-48.39-23.75-69.58-25.52-22.95-25.96-57.83-10.95-89.88,15.54-33.03,42.91-48.39,72.4-50.51,42.12.44,75.76,25.34,87.33,59.96,11.47,34.51,1.06,72.48-27.99,94.47h0ZM462.77,302.32c-37.35-.71-74.7-.27-112.05-.27s-76.2-.79-114.26.35c-14.84.45-17.75-4.68-17.22-18.1,1.06-22.96.09-46,.35-68.96.8-71.88,57.39-128.65,128.48-129,71.17-.35,128.65,55.8,130.15,127.68.53,24.46-.71,48.92.35,73.29.54,12.88-4.23,15.18-15.8,15.01h0Z"/>
</svg>